<svg xmlns="http://www.w3.org/2000/svg" viewBox="0 0 100 100" width="100" height="100"><defs><linearGradient id="g" x1="0" y1="0" x2="1" y2="1"><stop offset="0" stop-color="#818cf8"/><stop offset="1" stop-color="#c026d3"/></linearGradient></defs><path d="M18.0,72 L50,87.0 L50,92.0 L18.0,77 Z" fill="#8079a3"/><path d="M82.0,72 L50,87.0 L50,92.0 L82.0,77 Z" fill="#918ab4"/><path d="M18.0,72 L50,57.0 L82.0,72 L50,87.0 Z" fill="#c9c4e4"/><path d="M18.0,64 L50,79.0 L50,84.0 L18.0,69 Z" fill="#8079a3"/><path d="M82.0,64 L50,79.0 L50,84.0 L82.0,69 Z" fill="#918ab4"/><path d="M18.0,64 L50,49.0 L82.0,64 L50,79.0 Z" fill="#a79fce"/><path d="M18.0,23 L50,38.0 L50,43.0 L18.0,28 Z" fill="#6366f1"/><path d="M82.0,23 L50,38.0 L50,43.0 L82.0,28 Z" fill="#9333ea"/><path d="M18.0,23 L50,8.0 L82.0,23 L50,38.0 Z" fill="url(#g)"/></svg>